<?xml version="1.0" encoding="UTF-8"?> <svg xmlns="http://www.w3.org/2000/svg" id="Layer_2" data-name="Layer 2" viewBox="0 0 175.38 72.25"><defs><style> .cls-1 { fill: #fff; } .cls-2 { fill: #3890d6; } .cls-3 { fill: #f48c2f; } .cls-4 { fill: #7aa154; } .cls-5 { fill: #ff3694; } </style></defs><g id="Layer_2-2" data-name="Layer 2"><g><g><path class="cls-1" d="M140.86,38.03c3.97-3,5.89-6.23,5.89-9.87,0-6.68-5.33-11.34-12.95-11.34-5.75,0-10.89,2.75-14.11,7.55l-.78,1.16,7.76,2.94.49-.75c1.48-2.28,3.77-3.59,6.29-3.59,2.8,0,5.07,1.76,5.07,3.93,0,1.45-.76,2.75-2.38,4.06l-15.95,12.59v7.62h26.47v-7.62h-14.61l8.82-6.68Z"></path><path class="cls-1" d="M162.92,28.84c-.39,0-.72,0-1.03.03l6.76-9.43-8.22-2.67-9.52,14.72c-2.14,3.28-3.38,5.95-3.38,9.89,0,5.68,4.88,11.71,13.92,11.71,8.2,0,13.92-5.11,13.92-12.44,0-6.73-5.36-11.81-12.46-11.81ZM167.38,40.81c0,3.02-2.65,5.48-5.91,5.48s-5.91-2.46-5.91-5.48,2.65-5.48,5.91-5.48,5.91,2.46,5.91,5.48Z"></path><path class="cls-1" d="M110.55,40.09l-.67.91c-1.91,2.58-4.87,4.06-8.12,4.06-4.36,0-8.17-2.99-9.5-7-.04-.14-.08-.28-.12-.41-.25-.87-.39-1.78-.39-2.72,0-5.49,4.59-10.13,10.02-10.13,3.27,0,6.11,1.5,7.99,4.23l.67.98,6.87-5.15-.73-.92c-3.66-4.6-8.92-7.13-14.81-7.13-9.13,0-16.53,6.07-18.26,14.38-1.63-.36-3.28-.56-4.8-.75-4.84-.61-7.12-1.1-7.12-2.99,0-1.63,1.77-3.27,5.71-3.27,2.13,0,3.93.51,5.68,1.65,1.23-2.45,2.94-4.61,5.03-6.37-2.92-1.76-6.4-2.65-10.4-2.65-8.35,0-14.64,4.71-14.64,10.95,0,8.64,8,9.71,13.85,10.5,4.45.6,7.18,1.06,7.18,3.05,0,2.7-3.44,3.7-6.65,3.74-3.19,0-6.4-1.48-8.83-4.05l-.76-.81-6.27,5.63.81.85c3.86,4.05,9.25,6.38,14.79,6.38,4.54,0,9.26-1.54,12.28-4.48,3.27,2.8,7.59,4.48,12.39,4.48,5.89,0,11.15-2.53,14.81-7.13l.74-.93-6.76-4.89Z"></path></g><g><path class="cls-5" d="M70.88,62.23c-.64.8-1.52,1.17-2.43,1.17-1.7,0-3.06-1.3-3.06-2.97s1.35-2.96,3.06-2.96c.91,0,1.79.37,2.43,1.17l-.87.65c-.36-.53-.92-.82-1.56-.82-1.03,0-1.95.86-1.95,1.97s.92,1.97,1.95,1.97c.64,0,1.21-.3,1.58-.79l.85.62Z"></path><path class="cls-5" d="M72.78,60.86h-.68v-1h.68v-2.28h1.05v2.28h2.6v-2.28h1.05v5.69h-1.05v-2.42h-2.6v2.42h-1.05v-2.42Z"></path><path class="cls-5" d="M79.73,57.59h1.05v5.69h-1.05v-5.69Z"></path><path class="cls-5" d="M88.12,62.23c-.64.8-1.52,1.17-2.43,1.17-1.7,0-3.06-1.3-3.06-2.97s1.35-2.96,3.06-2.96c.91,0,1.79.37,2.43,1.17l-.87.65c-.36-.53-.92-.82-1.56-.82-1.03,0-1.95.86-1.95,1.97s.92,1.97,1.95,1.97c.64,0,1.21-.3,1.58-.79l.85.62Z"></path><path class="cls-5" d="M91.28,58.53h-1.31v-.94h2.36l2.41,5.69h-1.13l-.44-1.07h-2.41l-.44,1.07h-1.12l2.08-4.75ZM92.8,61.27l-.82-2.04-.83,2.04h1.66Z"></path><path class="cls-5" d="M98.92,57.47c.91,0,1.79.37,2.43,1.17l-.87.65c-.36-.53-.92-.82-1.56-.82-1.03,0-1.95.86-1.95,1.97s.92,1.97,1.95,1.97c.94,0,1.7-.57,1.93-1.54h-1.94v-1h3.07v.75c0,.93-.84,2.78-3.06,2.78-1.7,0-3.06-1.3-3.06-2.97s1.35-2.96,3.06-2.96Z"></path><path class="cls-5" d="M106.45,57.47c1.7,0,3.06,1.3,3.06,2.96s-1.35,2.97-3.06,2.97-3.06-1.3-3.06-2.97,1.35-2.96,3.06-2.96ZM106.45,62.41c1.02,0,1.95-.86,1.95-1.97s-.92-1.97-1.95-1.97-1.95.86-1.95,1.97.92,1.97,1.95,1.97Z"></path></g><g><path class="cls-5" d="M121.11,59.8v3.49h-1.05v-5.81l3.67,3.61v-3.49h1.05v5.81l-3.67-3.61Z"></path><path class="cls-5" d="M129.62,57.47c1.7,0,3.06,1.3,3.06,2.96s-1.35,2.97-3.06,2.97-3.06-1.3-3.06-2.97,1.35-2.96,3.06-2.96ZM129.62,62.41c1.02,0,1.95-.86,1.95-1.97s-.92-1.97-1.95-1.97-1.95.86-1.95,1.97.92,1.97,1.95,1.97Z"></path><path class="cls-5" d="M133.8,57.59h1.13l1.39,3.48,1.39-3.48h1.13l-2.52,5.81-2.52-5.81Z"></path><path class="cls-5" d="M143.92,59.14l-.76.52v-1.1l1.81-1.09v5.81h-1.05v-4.14Z"></path><path class="cls-5" d="M147.41,57.59h3.36v.94h-2.44l-.14,1.04c.24-.17.57-.27,1.02-.27.92,0,1.92.68,1.92,1.98,0,.99-.71,2.12-2.27,2.12-.8,0-1.41-.2-2.09-.8l.83-.71c.28.34.73.56,1.28.56.7,0,1.21-.54,1.2-1.16,0-.63-.49-1.11-1.12-1.11-.48,0-.81.19-1.03.46h-.82l.3-3.06Z"></path><path class="cls-5" d="M152.27,59.99h4.53v.78h-4.53v-.78Z"></path><path class="cls-5" d="M157.98,62.24l2.71-2.14c.34-.27.49-.55.49-.86,0-.51-.5-.88-1.08-.88-.53,0-.98.28-1.26.72l-.98-.37c.5-.74,1.31-1.23,2.3-1.23,1.31,0,2.07.82,2.07,1.79,0,.61-.35,1.12-.95,1.57l-1.98,1.5v.02h2.91v.94h-4.23v-1.04Z"></path><path class="cls-5" d="M166.38,57.47c1.7,0,3.06,1.3,3.06,2.96s-1.35,2.97-3.06,2.97-3.06-1.3-3.06-2.97,1.35-2.96,3.06-2.96ZM166.38,62.41c1.02,0,1.95-.86,1.95-1.97s-.92-1.97-1.95-1.97-1.95.86-1.95,1.97.92,1.97,1.95,1.97Z"></path></g><g><polygon class="cls-5" points="23.6 6.6 25.04 1.56 26.48 6.6 31.57 5.32 27.92 9.09 31.57 12.86 26.48 11.59 25.04 16.63 23.6 11.59 18.52 12.86 22.16 9.09 18.52 5.32 23.6 6.6"></polygon><path class="cls-4" d="M21.67,45.03h-9.22s-.03,3.4-.03,3.4l-11.32-.03-1.09,12.97c8.84-10.76,19.59-10.07,19.59-10.07,0,0-.08-3.47,2.07-6.27Z"></path><polygon class="cls-2" points="46.14 17.49 47.36 13.2 48.59 17.49 52.91 16.4 49.81 19.61 52.91 22.81 48.59 21.72 47.36 26.01 46.14 21.72 41.81 22.81 44.91 19.61 41.81 16.4 46.14 17.49"></polygon><polygon class="cls-2" points="42.41 7.86 43.2 5.07 44 7.86 46.81 7.16 44.79 9.24 46.81 11.32 44 10.62 43.2 13.4 42.41 10.62 39.6 11.32 41.61 9.24 39.6 7.16 42.41 7.86"></polygon><polygon class="cls-2" points="36.28 14.34 36.98 11.87 37.69 14.34 40.17 13.72 38.39 15.56 40.17 17.4 37.69 16.78 36.98 19.24 36.28 16.78 33.79 17.4 35.58 15.56 33.79 13.72 36.28 14.34"></polygon><path class="cls-3" d="M35.9,24.15c0-.06-.05-.11-.11-.11h-.74c-.06.01-.11-.04-.11-.1v-2.03s-.03-.07-.06-.09l-1.46-1.8s-.1-.03-.13,0l-1.5,1.9v1.96c.01.09-.06.16-.15.17h-.55c-.09,0-.16.08-.16.17v.82c-.01.06-.06.11-.12.11l-4.67.04c-.06,0-.11-.05-.11-.11v-.86c-.01-.09-.08-.16-.18-.16h-.63c-.09,0-.16-.07-.17-.16v-1.94s-.02-.06-.05-.08l-1.45-1.85s-.1-.03-.15,0l-1.39,1.85s-.04.05-.04.08v1.98c0,.05-.04.1-.09.1h-.69c-.09,0-.16.08-.16.17l.03,12.58h-4.54s-2.57-24.24-2.57-24.24c0-.04-.03-.08-.07-.09h-1.37s-.11-1.15-.11-1.15h-.69s0-11.3,0-11.3l-.92,1.09v10.22h-2.05s0-11.31,0-11.31l-.92,1.09v10.23h-.79s-.07,1.16-.1,1.16l-1.36.02c-.06,0-.11.05-.11.1l-2.48,31.84h4.92s1.17-27.98,1.17-27.98h1.56s1.49,24.63,1.49,24.63h13.78s.01-11.88.01-11.88c0-.06.05-.11.11-.11l4.88-.03c.06,0,.11.05.11.11v9.74c0,.07.06.12.13.11.57-.07,1.46-.18,2.05-.18,1.02,0,1.6.06,2.58.27.07.01.13-.04.13-.11v-14.88Z"></path><path class="cls-4" d="M54.78,26.87l-3.53-.96-1.01,3.15-10.77-.02v11.45c1.37.41,3.94,2.03,5.03,3.78.05.08.1.06.1-.01v-10.54s5.5,0,5.5,0v11.26l4.68-.02v-18.08Z"></path><path class="cls-2" d="M55.48,58.69c-1.4,3.04-4.22,5.81-7.21,7.32-2.99,1.51-5.61,2.21-9.74,2.05-4.52-.18-10.7-4.7-16.57-6.48-2.48-.75-5.24-.8-7.68.06,2.58-2.09,5.99-2.76,9.31-2.8,2.4-.03,6.42,1.33,7.56,1.76,2.48,1.12,5.16,1.7,7.95,1.68,8.83-.07,15.58-6.6,16.13-13.61l-8.27.02s0,.01,0,.02c.04,1.8-.84,8.72-7.86,9.23-5.99.43-11.43-2.44-10.15-7.66,1.14-4.66,10.3-6.06,10.56,2.24,2.9-1.11,2.88-7.54-2.89-9.35-9.58-3.01-14.7,7.14-12.28,11.64-4.02-.68-8.59.3-11.96,2.6-3.37,2.3-6.4,4.54-7.88,8.33,3.24-2.26,7.89-2.11,11.79-1.44,3.89.67,7.51,2.46,10.88,4.52,3.16,1.93,6.65,3,10.58,3.38,4.96.48,17.72-2.1,17.72-13.5Z"></path></g></g></g></svg> 